<svg width="56" height="56" viewBox="0 0 56 56" fill="none" xmlns="http://www.w3.org/2000/svg">
<path d="M21 42V11.6667L49 7V37.3333" stroke="#7DC800" stroke-width="5" stroke-linecap="round" stroke-linejoin="round"/>
<path d="M14 49C17.866 49 21 45.866 21 42C21 38.134 17.866 35 14 35C10.134 35 7 38.134 7 42C7 45.866 10.134 49 14 49Z" fill="#7DC800" stroke="#7DC800" stroke-width="6" stroke-linecap="round" stroke-linejoin="round"/>
<path d="M42 44.3359C45.866 44.3359 49 41.2019 49 37.3359C49 33.4699 45.866 30.3359 42 30.3359C38.134 30.3359 35 33.4699 35 37.3359C35 41.2019 38.134 44.3359 42 44.3359Z" fill="#7DC800" stroke="#7DC800" stroke-width="6" stroke-linecap="round" stroke-linejoin="round"/>
</svg>
