<svg width="24" height="24" viewBox="0 0 24 24" fill="none" xmlns="http://www.w3.org/2000/svg">
<mask id="mask0_601_505" style="mask-type:luminance" maskUnits="userSpaceOnUse" x="0" y="3" width="24" height="18">
<path d="M23.9541 3.4873H0.15918V20.5129H23.9541V3.4873Z" fill="white"/>
</mask>
<g mask="url(#mask0_601_505)">
<path d="M0.177195 19.2891C0.117242 19.6765 0.434984 20.1186 0.870869 20.2545C1.09908 20.3256 1.33563 20.3666 1.57447 20.3763C1.77387 20.3836 1.97327 20.3924 2.17267 20.4015C2.6394 20.4221 3.1173 20.4434 3.59507 20.4434C3.78703 20.4434 3.97894 20.4399 4.16984 20.4315C5.09917 20.3916 6.04274 20.332 6.95519 20.2744C8.04815 20.2057 9.17819 20.1346 10.2899 20.0961C13.1841 19.9959 16.0893 19.5975 18.899 19.2123L19.2635 19.1623C19.9222 19.0723 20.6032 18.9789 21.2674 18.8471C21.2968 18.8414 21.3271 18.8362 21.3579 18.831C21.6248 18.7855 22.0278 18.717 22.1316 18.1039C22.1372 18.0707 22.1304 18.0366 22.1126 18.0082C22.0945 17.9797 22.0668 17.9588 22.0344 17.9496C21.9645 17.9297 21.8998 17.9077 21.8387 17.8869C21.7132 17.8375 21.5815 17.8053 21.4473 17.7913L21.0239 17.7663C20.0471 17.7086 19.0371 17.649 18.0417 17.6224C15.221 17.5453 12.3982 17.6187 9.58526 17.8423C7.77312 17.9886 5.92803 18.1083 4.14354 18.2242C3.2396 18.2828 2.33562 18.3427 1.43168 18.4037C1.23864 18.4123 1.04749 18.4452 0.862756 18.5019C0.685099 18.5535 0.526046 18.6551 0.404504 18.7948C0.282961 18.9343 0.204025 19.1059 0.177195 19.2891Z" fill="#4C4C4C"/>
<path d="M0.66051 12.3309C0.656106 12.4758 0.692867 12.6191 0.766506 12.7441C0.840145 12.8691 0.947634 12.9706 1.07657 13.0369C1.29559 13.1445 1.53363 13.208 1.77713 13.2238C2.10003 13.2436 2.43886 13.2606 2.78288 13.2606C2.95117 13.2606 3.12058 13.2565 3.28994 13.2467C4.30023 13.1886 5.32565 13.12 6.31785 13.0538C8.17531 12.9298 10.0959 12.8011 11.9861 12.7363C14.5591 12.6477 17.146 12.3315 19.6476 12.0257C20.3035 11.9459 20.9589 11.8671 21.6138 11.7894C21.6661 11.7834 21.7189 11.7785 21.7726 11.7736C22.156 11.7383 22.6333 11.6944 23.1205 11.1723C23.1357 11.1561 23.1466 11.1365 23.1523 11.1152C23.1582 11.0939 23.1589 11.0715 23.1541 11.0499C23.1494 11.0283 23.1394 11.0082 23.1252 10.9912C23.1111 10.9743 23.093 10.961 23.0725 10.9526C22.1827 10.5863 21.413 10.5361 20.6376 10.5136L19.9608 10.4941C17.8174 10.4317 15.6014 10.3672 13.4128 10.4514C9.73408 10.5932 6.13149 10.9514 2.14101 11.3704C1.76589 11.4114 1.40026 11.515 1.05944 11.6771C0.938069 11.7373 0.83619 11.8306 0.765597 11.9464C0.695005 12.062 0.658584 12.1953 0.66051 12.3309Z" fill="#4C4C4C"/>
<path d="M1.41862 5.39669C1.67806 5.52332 1.95868 5.60068 2.24633 5.62483C2.40407 5.63652 2.56192 5.6486 2.71983 5.66101C3.44871 5.7174 4.20046 5.77564 4.94514 5.77564C5.0027 5.77564 5.06038 5.77566 5.11794 5.77459C6.52569 5.75691 7.95646 5.72403 9.34017 5.69225C11.176 5.65022 13.0743 5.60671 14.941 5.59806C17.6129 5.58569 20.2971 5.28003 22.8931 4.98447L22.9764 4.97505C23.1399 4.94368 23.2964 4.88211 23.4375 4.7935C23.5319 4.74348 23.6392 4.68708 23.7707 4.62616C23.7942 4.61534 23.8141 4.59806 23.8283 4.57634C23.8425 4.55462 23.85 4.52936 23.8502 4.50347C23.8507 4.47758 23.8437 4.45214 23.8299 4.43011C23.8164 4.40808 23.7967 4.39034 23.7735 4.379C23.6379 4.31249 23.5239 4.24865 23.4232 4.19172C23.2654 4.08539 23.088 4.01147 22.9013 3.97425L22.3912 3.9128C21.4002 3.79309 20.3756 3.66872 19.3618 3.62642C13.8992 3.39817 8.35244 3.61247 2.98848 3.81983L2.02584 3.85695C1.88025 3.86269 1.73562 3.88322 1.59419 3.91826C1.43241 3.94875 1.2846 4.0301 1.17223 4.15048C1.05985 4.27086 0.988762 4.424 0.969387 4.58758C0.944462 4.75314 0.975045 4.92232 1.0563 5.06868C1.13756 5.21505 1.26497 5.33039 1.41862 5.39669Z" fill="#4C4C4C"/>
</g>
</svg>
