<svg width="200" height="40" viewBox="0 0 200 40" fill="none" xmlns="http://www.w3.org/2000/svg">
<rect width="40" height="40" rx="6.66667" fill="#94EBFF"/>
<path d="M25.2 19.2333C24.9778 16.7222 24.2667 14.9 23.0667 13.7667C21.8667 12.6111 20.0556 12.0333 17.6333 12.0333C16.9444 12.0333 16.3 12.0889 15.7 12.2C15.1222 12.3111 14.5889 12.4444 14.1 12.6C13.6111 12.7333 13.1778 12.8889 12.8 13.0667C12.4222 13.2222 12.1 13.3556 11.8333 13.4667L10.7667 10.1C10.9667 9.96667 11.2889 9.8 11.7333 9.6C12.1778 9.4 12.7111 9.21111 13.3333 9.03333C13.9778 8.85556 14.6889 8.7 15.4667 8.56667C16.2444 8.43333 17.0778 8.36667 17.9667 8.36667C19.9889 8.36667 21.7333 8.67778 23.2 9.3C24.6667 9.9 25.8667 10.7333 26.8 11.8C27.7556 12.8667 28.4556 14.1333 28.9 15.6C29.3667 17.0667 29.6 18.6444 29.6 20.3333C29.6 22.3778 29.3333 24.1556 28.8 25.6667C28.2667 27.1778 27.5222 28.4444 26.5667 29.4667C25.6333 30.4889 24.5111 31.2556 23.2 31.7667C21.9111 32.2556 20.5111 32.5 19 32.5C17.5111 32.5 16.1667 32.2556 14.9667 31.7667C13.7667 31.2778 12.7444 30.5556 11.9 29.6C11.0556 28.6222 10.4 27.4111 9.93333 25.9667C9.48889 24.5222 9.26667 22.8444 9.26667 20.9333C9.26667 20.7111 9.27778 20.4222 9.3 20.0667C9.34444 19.7111 9.38889 19.4333 9.43333 19.2333H25.2ZM13.6667 22.7C13.7333 24.5889 14.2222 26.1 15.1333 27.2333C16.0667 28.3444 17.3778 28.9 19.0667 28.9C20.0667 28.9 20.9222 28.7222 21.6333 28.3667C22.3444 28.0111 22.9444 27.5444 23.4333 26.9667C23.9222 26.3889 24.2889 25.7333 24.5333 25C24.8 24.2444 24.9778 23.4778 25.0667 22.7H13.6667Z" fill="#3E76FF"/>
<rect x="40" width="40" height="40" rx="6.66667" fill="#FEB6DB"/>
<path d="M52.8 8.9C53.2889 9.74444 53.8333 10.7778 54.4333 12C55.0333 13.2222 55.6444 14.5111 56.2667 15.8667C56.8889 17.2 57.5 18.5667 58.1 19.9667C58.7222 21.3444 59.2889 22.6222 59.8 23.8C60.3111 22.6222 60.8667 21.3444 61.4667 19.9667C62.0667 18.5667 62.6778 17.2 63.3 15.8667C63.9222 14.5111 64.5333 13.2222 65.1333 12C65.7333 10.7778 66.2778 9.74444 66.7667 8.9H70.5667C70.7667 10.5889 70.9556 12.3889 71.1333 14.3C71.3111 16.1889 71.4667 18.1333 71.6 20.1333C71.7556 22.1111 71.8889 24.1111 72 26.1333C72.1333 28.1333 72.2444 30.0889 72.3333 32H68.2C68.1111 29.3111 68 26.5444 67.8667 23.7C67.7556 20.8556 67.5778 18.1 67.3333 15.4333C67.0889 15.9444 66.8 16.5556 66.4667 17.2667C66.1333 17.9778 65.7778 18.7556 65.4 19.6C65.0222 20.4222 64.6333 21.2778 64.2333 22.1667C63.8556 23.0556 63.4778 23.9222 63.1 24.7667C62.7444 25.5889 62.4111 26.3667 62.1 27.1C61.7889 27.8111 61.5222 28.4222 61.3 28.9333H58.1667C57.9444 28.4222 57.6778 27.8 57.3667 27.0667C57.0556 26.3333 56.7111 25.5556 56.3333 24.7333C55.9778 23.8889 55.6 23.0222 55.2 22.1333C54.8222 21.2444 54.4444 20.3889 54.0667 19.5667C53.6889 18.7444 53.3333 17.9778 53 17.2667C52.6667 16.5333 52.3778 15.9222 52.1333 15.4333C51.8889 18.1 51.7 20.8556 51.5667 23.7C51.4556 26.5444 51.3556 29.3111 51.2667 32H47.1333C47.2222 30.0889 47.3222 28.1111 47.4333 26.0667C47.5667 24.0222 47.7 22 47.8333 20C47.9889 17.9778 48.1556 16.0222 48.3333 14.1333C48.5111 12.2444 48.7 10.5 48.9 8.9H52.8Z" fill="#FF69B0"/>
<rect x="80" width="40" height="40" rx="6.66667" fill="#C7FF69"/>
<path d="M90.2667 32V8.9H94.4333V24.2333C95.1889 23.0333 96.0444 21.7444 97 20.3667C97.9778 18.9667 98.9778 17.5778 100 16.2C101.044 14.8222 102.078 13.5 103.1 12.2333C104.122 10.9444 105.078 9.83333 105.967 8.9H109.4V32H105.267V15.4667C104.333 16.5778 103.344 17.8333 102.3 19.2333C101.278 20.6111 100.267 22.0444 99.2667 23.5333C98.2667 25 97.3 26.4667 96.3667 27.9333C95.4333 29.3778 94.5889 30.7333 93.8333 32H90.2667Z" fill="#00C739"/>
<rect x="120" width="40" height="40" rx="6.66667" fill="#CFA0FF"/>
<path d="M144.5 8.9H148.7V32H144.5V21.7667H134.467V32H130.267V8.9H134.467V18.1333H144.5V8.9Z" fill="#7051B9"/>
<rect x="160" width="40" height="40" rx="6.66667" fill="#84D6FE"/>
<path d="M185.2 19.2333C184.978 16.7222 184.267 14.9 183.067 13.7667C181.867 12.6111 180.056 12.0333 177.633 12.0333C176.944 12.0333 176.3 12.0889 175.7 12.2C175.122 12.3111 174.589 12.4444 174.1 12.6C173.611 12.7333 173.178 12.8889 172.8 13.0667C172.422 13.2222 172.1 13.3556 171.833 13.4667L170.767 10.1C170.967 9.96667 171.289 9.8 171.733 9.6C172.178 9.4 172.711 9.21111 173.333 9.03333C173.978 8.85556 174.689 8.7 175.467 8.56667C176.244 8.43333 177.078 8.36667 177.967 8.36667C179.989 8.36667 181.733 8.67778 183.2 9.3C184.667 9.9 185.867 10.7333 186.8 11.8C187.756 12.8667 188.456 14.1333 188.9 15.6C189.367 17.0667 189.6 18.6444 189.6 20.3333C189.6 22.3778 189.333 24.1556 188.8 25.6667C188.267 27.1778 187.522 28.4444 186.567 29.4667C185.633 30.4889 184.511 31.2556 183.2 31.7667C181.911 32.2556 180.511 32.5 179 32.5C177.511 32.5 176.167 32.2556 174.967 31.7667C173.767 31.2778 172.744 30.5556 171.9 29.6C171.056 28.6222 170.4 27.4111 169.933 25.9667C169.489 24.5222 169.267 22.8444 169.267 20.9333C169.267 20.7111 169.278 20.4222 169.3 20.0667C169.344 19.7111 169.389 19.4333 169.433 19.2333H185.2ZM173.667 22.7C173.733 24.5889 174.222 26.1 175.133 27.2333C176.067 28.3444 177.378 28.9 179.067 28.9C180.067 28.9 180.922 28.7222 181.633 28.3667C182.344 28.0111 182.944 27.5444 183.433 26.9667C183.922 26.3889 184.289 25.7333 184.533 25C184.8 24.2444 184.978 23.4778 185.067 22.7H173.667Z" fill="#3E76FF"/>
</svg>
