<svg width="38" height="38" viewBox="0 0 38 38" fill="none" xmlns="http://www.w3.org/2000/svg">
<rect width="38" height="38" rx="19" transform="matrix(-1 0 0 1 38 0)" fill="white"/>
<path d="M20.4746 23.9554C20.4746 24.7875 21.4317 25.2556 22.0886 24.7447L28.4597 19.7894C28.9745 19.389 28.9745 18.611 28.4597 18.2106L22.0885 13.2553C21.4317 12.7444 20.4746 13.2125 20.4746 14.0446V23.9554Z" fill="#00D1FF"/>
<path d="M11.4746 23.9554C11.4746 24.7875 12.4317 25.2556 13.0886 24.7447L19.4597 19.7894C19.9745 19.389 19.9745 18.611 19.4597 18.2106L13.0885 13.2553C12.4317 12.7444 11.4746 13.2125 11.4746 14.0446V23.9554Z" fill="#00D1FF"/>
</svg>
